<?xml version="1.0" standalone="no"?>
<!DOCTYPE svg PUBLIC "-//W3C//DTD SVG 20010904//EN"
 "http://www.w3.org/TR/2001/REC-SVG-20010904/DTD/svg10.dtd">
<svg version="1.0" xmlns="http://www.w3.org/2000/svg"
 viewBox="0 0 2600.000000 2600.000000"
 preserveAspectRatio="xMidYMid meet">
<metadata>
Created by potrace 1.15, written by Peter Selinger 2001-2017
</metadata>
<g transform="translate(0.000000,2600.000000) scale(0.100000,-0.100000)"
fill="#000000" stroke="none">
<path d="M16465 21740 c-60 -13 -118 -35 -166 -65 -59 -36 -3328 -3307 -3413
-3415 -248 -315 -403 -648 -476 -1026 -49 -255 -51 -553 -6 -814 14 -80 29
-158 35 -175 5 -16 26 -85 47 -153 l38 -123 -3711 -3712 c-2929 -2931 -3720
-3727 -3757 -3784 -56 -86 -88 -157 -123 -272 -24 -77 -27 -102 -27 -241 0
-139 3 -164 27 -241 54 -176 120 -290 238 -408 167 -167 370 -257 609 -268
215 -10 402 46 585 175 28 19 1718 1703 3757 3740 l3707 3706 135 -43 c271
-85 508 -118 790 -108 493 18 936 180 1346 495 53 41 709 689 1756 1736 1555
1555 1674 1676 1703 1736 87 183 53 390 -86 528 -72 71 -141 108 -235 128
-115 24 -236 2 -339 -61 -24 -15 -433 -415 -909 -889 -809 -807 -869 -864
-928 -890 -87 -38 -177 -51 -260 -37 -303 51 -473 375 -341 651 29 60 105 138
899 935 960 963 915 911 942 1071 31 185 -70 386 -239 477 -142 76 -324 69
-464 -18 -24 -15 -433 -415 -909 -889 -796 -794 -870 -865 -925 -889 -90 -38
-172 -50 -258 -37 -306 46 -479 372 -346 650 29 60 105 138 899 935 795 797
870 875 899 935 87 183 54 389 -87 530 -109 109 -265 159 -407 130z"/>
<path d="M6204 21259 c-75 -9 -139 -38 -199 -91 -65 -57 -161 -255 -220 -453
-134 -447 -193 -896 -182 -1370 10 -414 60 -743 172 -1135 199 -694 546 -1308
1043 -1845 66 -71 685 -695 1376 -1385 l1256 -1255 1140 1140 1140 1140 -2582
2581 c-1671 1669 -2599 2590 -2628 2607 -100 56 -207 79 -316 66z"/>
<path d="M13212 13217 l-652 -652 2422 -2421 c2620 -2618 2482 -2485 2660
-2554 134 -52 200 -64 348 -64 109 0 151 4 220 23 309 83 547 302 649 598 27
81 51 219 51 298 0 180 -69 388 -181 542 -23 32 -1127 1144 -2453 2471 l-2411
2412 -653 -653z"/>
</g>
</svg>
